<svg width="600" height="120" viewBox="0 0 600 120" fill="none" xmlns="http://www.w3.org/2000/svg">
<path d="M146.614 105.947C143.227 105.947 140.606 108.699 140.606 111.966C140.606 115.233 143.213 117.949 146.578 117.949C149.944 117.949 152.604 115.197 152.604 111.931C152.604 108.664 149.979 105.947 146.614 105.947ZM146.578 116.481C144.006 116.481 142.059 114.453 142.059 111.962C142.059 109.472 144.028 107.408 146.614 107.408C149.199 107.408 151.168 109.436 151.168 111.927C151.168 114.418 149.164 116.481 146.578 116.481ZM149.132 110.904C149.132 109.652 148.282 108.946 146.776 108.946H144.331V114.541H145.767V112.989H146.829L147.661 114.541H149.309L148.12 112.707C148.776 112.389 149.129 111.754 149.129 110.907L149.132 110.904ZM146.776 111.856H145.767V110.075H146.776C147.397 110.075 147.749 110.375 147.749 110.957C147.749 111.539 147.397 111.856 146.776 111.856ZM79.9914 0C79.9914 0 -22.8928 44.9444 4.70148 51.8166C8.79017 52.822 13.2458 53.5981 17.9977 54.3636C16.7312 67.2049 15.2778 87.3734 17.6872 106.843C20.072 126.243 38.2295 121.995 38.9456 108.262C39.2138 102.642 39.2596 96.1577 39.2596 96.1577L43.6905 96.1647C43.5423 96.8915 43.5388 97.7311 43.5388 98.3132V115.719C43.5388 116.947 44.5301 117.998 45.7578 117.998C46.9855 117.998 47.9732 116.947 47.9732 115.719V109.264H52.6052L56.3411 116.711C56.7292 117.49 57.4383 117.953 58.3096 117.998C58.7259 118.02 59.2057 117.903 59.5232 117.73C60.6697 117.099 60.9484 115.832 60.391 114.725L58.9905 111.938L57.2372 108.445C59.2445 107.302 60.5992 105.154 60.5992 102.677C60.5992 100.363 59.0293 97.7593 56.9373 96.1647L71.7399 96.1824C66.4341 96.9479 62.3313 101.527 62.3313 107.041C62.3313 113.074 67.2667 118.002 73.3062 118.002C79.3458 118.002 84.2706 113.074 84.2706 107.041C84.2706 101.527 80.1713 96.9585 74.8831 96.1824L86.419 96.1965C86.3273 97.0502 86.3484 97.9745 86.3484 98.5354V115.786C86.3484 117.007 87.3433 117.998 88.5886 117.998C89.8339 117.998 90.8534 117.007 90.8534 115.786V109.5H96.6848C100.283 109.5 103.239 106.41 103.239 102.801C103.239 100.638 101.821 97.9745 99.9445 96.2071H105.106C105.017 97.0537 105.035 97.978 105.035 98.539V115.79C105.035 117.011 106.062 118.002 107.289 118.002C108.517 118.002 109.533 117.011 109.533 115.79V109.503H115.364C118.97 109.503 121.912 106.413 121.912 102.804C121.912 100.642 120.519 97.9921 118.635 96.2106H123.683V100.585C123.683 104.67 126.301 108.089 130.181 109.087V115.794C130.181 117.021 131.169 118.005 132.411 118.005C133.652 118.005 134.605 117.021 134.605 115.794V109.087C138.489 108.085 141.138 104.667 141.138 100.585V96.2282C141.138 96.2282 144.423 70.9655 141.399 54.3707C146.014 53.6052 151.32 52.7338 155.302 51.7531C182.883 44.8738 80.0125 0.00705563 79.9914 0ZM53.9634 104.787H47.9556V100.582H53.9634C55.1311 100.582 56.0695 101.509 56.0695 102.681C56.0695 103.852 55.1311 104.787 53.9634 104.787ZM79.7656 107.041C79.7656 110.608 76.8905 113.504 73.3098 113.504C69.7291 113.504 66.8433 110.611 66.8433 107.041C66.8433 103.471 69.7396 100.578 73.3098 100.578C76.8799 100.578 79.7656 103.46 79.7656 107.041ZM96.7131 104.995V105.027H90.8887V100.546H96.7131C97.8525 100.546 98.7909 101.633 98.7909 102.776C98.7909 103.919 97.8525 104.998 96.7131 104.998V104.995ZM115.393 104.995V105.027H109.554V100.546H115.393C116.543 100.546 117.467 101.633 117.467 102.776C117.467 103.919 116.543 104.998 115.393 104.998V104.995ZM80.002 84.0008C54.5949 84.0008 33.9997 74.5957 33.9997 63.0068C33.9997 51.4179 54.5949 41.9986 80.002 41.9986C105.409 41.9986 125.997 51.4109 125.997 63.0068C125.997 74.6027 105.43 84.0008 80.002 84.0008ZM136.499 100.578C136.499 102.949 134.757 104.903 132.414 104.903C130.072 104.903 128.308 102.949 128.308 100.578V96.2212H136.499V100.578ZM70.6639 107.055C70.6639 108.498 71.8351 109.662 73.2568 109.662C74.6785 109.662 75.8815 108.498 75.8815 107.055C75.8815 105.612 74.6926 104.445 73.2568 104.445C71.821 104.445 70.6639 105.616 70.6639 107.055ZM80.002 48.3099C62.2184 48.3099 47.8039 54.8822 47.8039 63.0068C47.8039 71.1314 62.2184 77.6966 80.002 77.6966C97.7855 77.6966 112.211 71.1243 112.211 63.0068C112.211 54.8893 97.7961 48.3099 80.002 48.3099Z" fill="#C60000"/>
<path d="M599.998 37.8705C599.998 44.5002 594.835 49.7 588.187 49.7C581.538 49.7 576.45 44.5002 576.45 37.9262C576.45 31.3521 581.557 26.1523 588.261 26.1523C594.965 26.1523 599.998 31.2221 599.998 37.8519V37.8705ZM598.066 37.8705C598.066 32.2621 593.925 28.0094 588.261 28.0094C582.597 28.0094 578.363 32.3735 578.363 37.9447C578.363 43.5159 582.56 47.8801 588.205 47.8801C593.851 47.8801 598.066 43.4788 598.066 37.8705ZM591.659 40.0061L594.594 44.5002H591.734L589.134 40.5075H586.162V44.5002H583.303V31.3707H588.762C592.235 31.3707 594.296 33.1721 594.296 35.9391C594.296 37.9076 593.368 39.3004 591.659 40.0061ZM588.595 38.279C590.471 38.279 591.529 37.4062 591.529 35.9391C591.529 34.472 590.471 33.6363 588.595 33.6363H586.125V38.279H588.595Z" fill="#C60000"/>
<path d="M553.749 71.0957C550.733 71.0957 548.094 70.4305 545.833 69.1001C543.571 67.7697 541.797 65.752 540.511 63.0469C539.27 60.2974 538.649 56.8384 538.649 52.6699C538.649 48.457 539.247 44.998 540.445 42.2929C541.642 39.5878 543.372 37.5701 545.633 36.2397C547.895 34.9093 550.6 34.2441 553.749 34.2441C557.119 34.2441 560.134 35.0202 562.795 36.5723C565.5 38.0801 567.629 40.2087 569.181 42.9581C570.777 45.7076 571.576 48.9448 571.576 52.6699C571.576 56.4393 570.777 59.6987 569.181 62.4482C567.629 65.1976 565.5 67.3262 562.795 68.834C560.134 70.3418 557.119 71.0957 553.749 71.0957ZM532.595 83.4682V34.7763H542.507V42.0934L542.307 52.7364L542.972 63.3129V83.4682H532.595ZM551.953 62.5812C553.682 62.5812 555.212 62.1821 556.542 61.3839C557.917 60.5857 559.003 59.4548 559.802 57.9914C560.644 56.4837 561.066 54.7098 561.066 52.6699C561.066 50.5856 560.644 48.8118 559.802 47.3484C559.003 45.885 557.917 44.7541 556.542 43.9559C555.212 43.1577 553.682 42.7586 551.953 42.7586C550.223 42.7586 548.671 43.1577 547.296 43.9559C545.921 44.7541 544.835 45.885 544.037 47.3484C543.238 48.8118 542.839 50.5856 542.839 52.6699C542.839 54.7098 543.238 56.4837 544.037 57.9914C544.835 59.4548 545.921 60.5857 547.296 61.3839C548.671 62.1821 550.223 62.5812 551.953 62.5812Z" fill="#C60000"/>
<path d="M507.822 71.0957C504.806 71.0957 502.167 70.4305 499.906 69.1001C497.644 67.7697 495.87 65.752 494.584 63.0469C493.343 60.2974 492.722 56.8384 492.722 52.6699C492.722 48.457 493.32 44.998 494.518 42.2929C495.715 39.5878 497.445 37.5701 499.706 36.2397C501.968 34.9093 504.673 34.2441 507.822 34.2441C511.192 34.2441 514.207 35.0202 516.868 36.5723C519.573 38.0801 521.702 40.2087 523.254 42.9581C524.85 45.7076 525.649 48.9448 525.649 52.6699C525.649 56.4393 524.85 59.6987 523.254 62.4482C521.702 65.1976 519.573 67.3262 516.868 68.834C514.207 70.3418 511.192 71.0957 507.822 71.0957ZM486.669 83.4682V34.7763H496.58V42.0934L496.38 52.7364L497.045 63.3129V83.4682H486.669ZM506.026 62.5812C507.755 62.5812 509.285 62.1821 510.615 61.3839C511.99 60.5857 513.077 59.4548 513.875 57.9914C514.717 56.4837 515.139 54.7098 515.139 52.6699C515.139 50.5856 514.717 48.8118 513.875 47.3484C513.077 45.885 511.99 44.7541 510.615 43.9559C509.285 43.1577 507.755 42.7586 506.026 42.7586C504.296 42.7586 502.744 43.1577 501.369 43.9559C499.994 44.7541 498.908 45.885 498.11 47.3484C497.312 48.8118 496.912 50.5856 496.912 52.6699C496.912 54.7098 497.312 56.4837 498.11 57.9914C498.908 59.4548 499.994 60.5857 501.369 61.3839C502.744 62.1821 504.296 62.5812 506.026 62.5812Z" fill="#C60000"/>
<path d="M430.352 70.5633L451.106 24H461.749L482.569 70.5633H471.261L454.232 29.4546H458.49L441.394 70.5633H430.352ZM440.729 60.5854L443.589 52.4036H467.536L470.463 60.5854H440.729Z" fill="#C60000"/>
<path d="M402.392 83.9999C400.529 83.9999 398.689 83.7117 396.871 83.1352C395.053 82.5587 393.567 81.7605 392.414 80.7405L396.206 73.3569C397.004 74.0664 397.913 74.6208 398.933 75.0199C399.997 75.419 401.039 75.6185 402.059 75.6185C403.523 75.6185 404.676 75.2638 405.518 74.5542C406.405 73.889 407.203 72.7582 407.913 71.1618L409.776 66.7715L410.574 65.6407L423.412 34.7759H433.39L417.226 72.7582C416.073 75.6407 414.742 77.9024 413.235 79.5432C411.771 81.184 410.13 82.337 408.312 83.0022C406.538 83.6673 404.565 83.9999 402.392 83.9999ZM408.512 71.96L392.547 34.7759H403.257L415.629 64.7094L408.512 71.96Z" fill="#C60000"/>
<path d="M374.069 71.0957C371.054 71.0957 368.415 70.4305 366.153 69.1001C363.892 67.7697 362.118 65.752 360.832 63.0469C359.59 60.2974 358.969 56.8384 358.969 52.6699C358.969 48.457 359.568 44.998 360.765 42.2929C361.963 39.5878 363.692 37.5701 365.954 36.2397C368.216 34.9093 370.921 34.2441 374.069 34.2441C377.439 34.2441 380.455 35.0202 383.116 36.5723C385.821 38.0801 387.949 40.2087 389.502 42.9581C391.098 45.7076 391.896 48.9448 391.896 52.6699C391.896 56.4393 391.098 59.6987 389.502 62.4482C387.949 65.1976 385.821 67.3262 383.116 68.834C380.455 70.3418 377.439 71.0957 374.069 71.0957ZM352.916 83.4682V34.7763H362.827V42.0934L362.628 52.7364L363.293 63.3129V83.4682H352.916ZM372.273 62.5812C374.003 62.5812 375.533 62.1821 376.863 61.3839C378.238 60.5857 379.324 59.4548 380.122 57.9914C380.965 56.4837 381.386 54.7098 381.386 52.6699C381.386 50.5856 380.965 48.8118 380.122 47.3484C379.324 45.885 378.238 44.7541 376.863 43.9559C375.533 43.1577 374.003 42.7586 372.273 42.7586C370.544 42.7586 368.992 43.1577 367.617 43.9559C366.242 44.7541 365.156 45.885 364.357 47.3484C363.559 48.8118 363.16 50.5856 363.16 52.6699C363.16 54.7098 363.559 56.4837 364.357 57.9914C365.156 59.4548 366.242 60.5857 367.617 61.3839C368.992 62.1821 370.544 62.5812 372.273 62.5812Z" fill="#C60000"/>
<path d="M328.142 71.0957C325.127 71.0957 322.488 70.4305 320.227 69.1001C317.965 67.7697 316.191 65.752 314.905 63.0469C313.663 60.2974 313.043 56.8384 313.043 52.6699C313.043 48.457 313.641 44.998 314.839 42.2929C316.036 39.5878 317.765 37.5701 320.027 36.2397C322.289 34.9093 324.994 34.2441 328.142 34.2441C331.513 34.2441 334.528 35.0202 337.189 36.5723C339.894 38.0801 342.023 40.2087 343.575 42.9581C345.171 45.7076 345.969 48.9448 345.969 52.6699C345.969 56.4393 345.171 59.6987 343.575 62.4482C342.023 65.1976 339.894 67.3262 337.189 68.834C334.528 70.3418 331.513 71.0957 328.142 71.0957ZM306.989 83.4682V34.7763H316.901V42.0934L316.701 52.7364L317.366 63.3129V83.4682H306.989ZM326.346 62.5812C328.076 62.5812 329.606 62.1821 330.936 61.3839C332.311 60.5857 333.397 59.4548 334.196 57.9914C335.038 56.4837 335.459 54.7098 335.459 52.6699C335.459 50.5856 335.038 48.8118 334.196 47.3484C333.397 45.885 332.311 44.7541 330.936 43.9559C329.606 43.1577 328.076 42.7586 326.346 42.7586C324.617 42.7586 323.065 43.1577 321.69 43.9559C320.315 44.7541 319.229 45.885 318.431 47.3484C317.632 48.8118 317.233 50.5856 317.233 52.6699C317.233 54.7098 317.632 56.4837 318.431 57.9914C319.229 59.4548 320.315 60.5857 321.69 61.3839C323.065 62.1821 324.617 62.5812 326.346 62.5812Z" fill="#C60000"/>
<path d="M280.43 71.0957C276.616 71.0957 273.224 70.2974 270.253 68.701C267.326 67.1045 264.998 64.9316 263.268 62.1821C261.583 59.3883 260.741 56.2176 260.741 52.6699C260.741 49.0779 261.583 45.9071 263.268 43.1577C264.998 40.3639 267.326 38.1909 270.253 36.6388C273.224 35.0424 276.616 34.2441 280.43 34.2441C284.2 34.2441 287.57 35.0424 290.541 36.6388C293.512 38.1909 295.84 40.3417 297.526 43.0912C299.211 45.8406 300.053 49.0335 300.053 52.6699C300.053 56.2176 299.211 59.3883 297.526 62.1821C295.84 64.9316 293.512 67.1045 290.541 68.701C287.57 70.2974 284.2 71.0957 280.43 71.0957ZM280.43 62.5812C282.16 62.5812 283.712 62.1821 285.087 61.3839C286.461 60.5857 287.548 59.4548 288.346 57.9914C289.144 56.4837 289.543 54.7098 289.543 52.6699C289.543 50.5856 289.144 48.8118 288.346 47.3484C287.548 45.885 286.461 44.7541 285.087 43.9559C283.712 43.1577 282.16 42.7586 280.43 42.7586C278.701 42.7586 277.149 43.1577 275.774 43.9559C274.399 44.7541 273.29 45.885 272.448 47.3484C271.65 48.8118 271.251 50.5856 271.251 52.6699C271.251 54.7098 271.65 56.4837 272.448 57.9914C273.29 59.4548 274.399 60.5857 275.774 61.3839C277.149 62.1821 278.701 62.5812 280.43 62.5812Z" fill="#C60000"/>
<path d="M235.339 70.5635V34.7763H245.25V44.8872L243.853 41.9603C244.917 39.4326 246.625 37.5257 248.975 36.2397C251.325 34.9093 254.186 34.2441 257.556 34.2441V43.8229C257.113 43.7785 256.713 43.7564 256.359 43.7564C256.004 43.712 255.627 43.6898 255.228 43.6898C252.39 43.6898 250.084 44.5102 248.31 46.151C246.58 47.7475 245.716 50.253 245.716 53.6677V70.5635H235.339Z" fill="#C60000"/>
<path d="M188 70.5633V24H208.155C212.324 24 215.916 24.6874 218.931 26.0621C221.947 27.3925 224.275 29.3215 225.916 31.8492C227.557 34.377 228.377 37.3925 228.377 40.8958C228.377 44.3548 227.557 47.3482 225.916 49.8759C224.275 52.4036 221.947 54.3548 218.931 55.7296C215.916 57.0599 212.324 57.7251 208.155 57.7251H193.987L198.776 52.8692V70.5633H188ZM198.776 54.0666L193.987 48.9446H207.557C210.883 48.9446 213.366 48.2351 215.007 46.816C216.648 45.3969 217.468 43.4235 217.468 40.8958C217.468 38.3238 216.648 36.3282 215.007 34.9091C213.366 33.49 210.883 32.7805 207.557 32.7805H193.987L198.776 27.6585V54.0666Z" fill="#C60000"/>
<path d="M560.591 97.2041L551.681 118.966H549.143L552.059 111.838L546.092 97.2041H548.819L553.463 109.192L558.053 97.2041H560.591Z" fill="#662211"/>
<path d="M535.432 96.9609C536.71 96.9609 537.826 97.2399 538.78 97.7979C539.752 98.3559 540.472 99.0579 540.94 99.9039V97.2039H543.424V112.324C543.424 113.674 543.136 114.871 542.56 115.915C541.984 116.977 541.156 117.805 540.076 118.399C539.014 118.993 537.772 119.29 536.35 119.29C534.406 119.29 532.786 118.831 531.49 117.913C530.194 116.995 529.429 115.744 529.195 114.16H531.625C531.895 115.06 532.453 115.78 533.299 116.32C534.145 116.878 535.162 117.157 536.35 117.157C537.7 117.157 538.798 116.734 539.644 115.888C540.508 115.042 540.94 113.854 540.94 112.324V109.219C540.454 110.083 539.734 110.803 538.78 111.379C537.826 111.955 536.71 112.243 535.432 112.243C534.118 112.243 532.921 111.919 531.841 111.271C530.779 110.623 529.942 109.714 529.33 108.544C528.718 107.374 528.412 106.042 528.412 104.548C528.412 103.036 528.718 101.713 529.33 100.579C529.942 99.4269 530.779 98.5359 531.841 97.9059C532.921 97.2759 534.118 96.9609 535.432 96.9609ZM540.94 104.575C540.94 103.459 540.715 102.487 540.265 101.659C539.815 100.831 539.203 100.201 538.429 99.7689C537.673 99.3189 536.836 99.0939 535.918 99.0939C535 99.0939 534.163 99.3099 533.407 99.7419C532.651 100.174 532.048 100.804 531.598 101.632C531.148 102.46 530.923 103.432 530.923 104.548C530.923 105.682 531.148 106.672 531.598 107.518C532.048 108.346 532.651 108.985 533.407 109.435C534.163 109.867 535 110.083 535.918 110.083C536.836 110.083 537.673 109.867 538.429 109.435C539.203 108.985 539.815 108.346 540.265 107.518C540.715 106.672 540.94 105.691 540.94 104.575Z" fill="#662211"/>
<path d="M518.243 112.243C516.857 112.243 515.597 111.928 514.463 111.298C513.347 110.668 512.465 109.777 511.817 108.625C511.187 107.455 510.872 106.105 510.872 104.575C510.872 103.063 511.196 101.731 511.844 100.579C512.51 99.4089 513.41 98.5179 514.544 97.9059C515.678 97.2759 516.947 96.9609 518.351 96.9609C519.755 96.9609 521.024 97.2759 522.158 97.9059C523.292 98.5179 524.183 99.3999 524.831 100.552C525.497 101.704 525.83 103.045 525.83 104.575C525.83 106.105 525.488 107.455 524.804 108.625C524.138 109.777 523.229 110.668 522.077 111.298C520.925 111.928 519.647 112.243 518.243 112.243ZM518.243 110.083C519.125 110.083 519.953 109.876 520.727 109.462C521.501 109.048 522.122 108.427 522.59 107.599C523.076 106.771 523.319 105.763 523.319 104.575C523.319 103.387 523.085 102.379 522.617 101.551C522.149 100.723 521.537 100.111 520.781 99.7149C520.025 99.3009 519.206 99.0939 518.324 99.0939C517.424 99.0939 516.596 99.3009 515.84 99.7149C515.102 100.111 514.508 100.723 514.058 101.551C513.608 102.379 513.383 103.387 513.383 104.575C513.383 105.781 513.599 106.798 514.031 107.626C514.481 108.454 515.075 109.075 515.813 109.489C516.551 109.885 517.361 110.083 518.243 110.083Z" fill="#662211"/>
<path d="M507.332 92.02V112H504.875V92.02H507.332Z" fill="#662211"/>
<path d="M493.788 112.243C492.402 112.243 491.142 111.928 490.008 111.298C488.892 110.668 488.01 109.777 487.362 108.625C486.732 107.455 486.417 106.105 486.417 104.575C486.417 103.063 486.741 101.731 487.389 100.579C488.055 99.4089 488.955 98.5179 490.089 97.9059C491.223 97.2759 492.492 96.9609 493.896 96.9609C495.3 96.9609 496.569 97.2759 497.703 97.9059C498.837 98.5179 499.728 99.3999 500.376 100.552C501.042 101.704 501.375 103.045 501.375 104.575C501.375 106.105 501.033 107.455 500.349 108.625C499.683 109.777 498.774 110.668 497.622 111.298C496.47 111.928 495.192 112.243 493.788 112.243ZM493.788 110.083C494.67 110.083 495.498 109.876 496.272 109.462C497.046 109.048 497.667 108.427 498.135 107.599C498.621 106.771 498.864 105.763 498.864 104.575C498.864 103.387 498.63 102.379 498.162 101.551C497.694 100.723 497.082 100.111 496.326 99.7149C495.57 99.3009 494.751 99.0939 493.869 99.0939C492.969 99.0939 492.141 99.3009 491.385 99.7149C490.647 100.111 490.053 100.723 489.603 101.551C489.153 102.379 488.928 103.387 488.928 104.575C488.928 105.781 489.144 106.798 489.576 107.626C490.026 108.454 490.62 109.075 491.358 109.489C492.096 109.885 492.906 110.083 493.788 110.083Z" fill="#662211"/>
<path d="M477.003 96.9341C478.803 96.9341 480.261 97.4831 481.377 98.5811C482.493 99.6611 483.051 101.227 483.051 103.279V112H480.621V103.63C480.621 102.154 480.252 101.029 479.514 100.255C478.776 99.4631 477.768 99.0671 476.49 99.0671C475.194 99.0671 474.159 99.4721 473.385 100.282C472.629 101.092 472.251 102.271 472.251 103.819V112H469.794V97.2041H472.251V99.3101C472.737 98.5541 473.394 97.9691 474.222 97.5551C475.068 97.1411 475.995 96.9341 477.003 96.9341Z" fill="#662211"/>
<path d="M459.598 96.934C460.714 96.934 461.722 97.177 462.622 97.663C463.522 98.131 464.224 98.842 464.728 99.796C465.25 100.75 465.511 101.911 465.511 103.279V112H463.081V103.63C463.081 102.154 462.712 101.029 461.974 100.255C461.236 99.463 460.228 99.067 458.95 99.067C457.654 99.067 456.619 99.472 455.845 100.282C455.089 101.092 454.711 102.271 454.711 103.819V112H452.254V92.02H454.711V99.31C455.197 98.554 455.863 97.969 456.709 97.555C457.573 97.141 458.536 96.934 459.598 96.934Z" fill="#662211"/>
<path d="M434.665 104.575C434.665 103.045 434.971 101.713 435.583 100.579C436.195 99.4269 437.041 98.5359 438.121 97.9059C439.219 97.2759 440.47 96.9609 441.874 96.9609C443.692 96.9609 445.186 97.4019 446.356 98.2839C447.544 99.1659 448.327 100.39 448.705 101.956H446.059C445.807 101.056 445.312 100.345 444.574 99.8229C443.854 99.3009 442.954 99.0399 441.874 99.0399C440.47 99.0399 439.336 99.5259 438.472 100.498C437.608 101.452 437.176 102.811 437.176 104.575C437.176 106.357 437.608 107.734 438.472 108.706C439.336 109.678 440.47 110.164 441.874 110.164C442.954 110.164 443.854 109.912 444.574 109.408C445.294 108.904 445.789 108.184 446.059 107.248H448.705C448.309 108.76 447.517 109.975 446.329 110.893C445.141 111.793 443.656 112.243 441.874 112.243C440.47 112.243 439.219 111.928 438.121 111.298C437.041 110.668 436.195 109.777 435.583 108.625C434.971 107.473 434.665 106.123 434.665 104.575Z" fill="#662211"/>
<path d="M432.07 104.035C432.07 104.503 432.043 104.998 431.989 105.52H420.163C420.253 106.978 420.748 108.121 421.648 108.949C422.566 109.759 423.673 110.164 424.969 110.164C426.031 110.164 426.913 109.921 427.615 109.435C428.335 108.931 428.839 108.265 429.127 107.437H431.773C431.377 108.859 430.585 110.02 429.397 110.92C428.209 111.802 426.733 112.243 424.969 112.243C423.565 112.243 422.305 111.928 421.189 111.298C420.091 110.668 419.227 109.777 418.597 108.625C417.967 107.455 417.652 106.105 417.652 104.575C417.652 103.045 417.958 101.704 418.57 100.552C419.182 99.3999 420.037 98.5179 421.135 97.9059C422.251 97.2759 423.529 96.9609 424.969 96.9609C426.373 96.9609 427.615 97.2669 428.695 97.8789C429.775 98.4909 430.603 99.3369 431.179 100.417C431.773 101.479 432.07 102.685 432.07 104.035ZM429.532 103.522C429.532 102.586 429.325 101.785 428.911 101.119C428.497 100.435 427.93 99.9219 427.21 99.5799C426.508 99.2199 425.725 99.0399 424.861 99.0399C423.619 99.0399 422.557 99.4359 421.675 100.228C420.811 101.02 420.316 102.118 420.19 103.522H429.532Z" fill="#662211"/>
<path d="M415.276 93.1812V95.1792H410.146V112H407.689V95.1792H402.532V93.1812H415.276Z" fill="#662211"/>
<path d="M372.15 112.243C371.016 112.243 369.999 112.054 369.099 111.676C368.199 111.28 367.488 110.74 366.966 110.056C366.444 109.354 366.156 108.553 366.102 107.653H368.64C368.712 108.391 369.054 108.994 369.666 109.462C370.296 109.93 371.115 110.164 372.123 110.164C373.059 110.164 373.797 109.957 374.337 109.543C374.877 109.129 375.147 108.607 375.147 107.977C375.147 107.329 374.859 106.852 374.283 106.546C373.707 106.222 372.816 105.907 371.61 105.601C370.512 105.313 369.612 105.025 368.91 104.737C368.226 104.431 367.632 103.99 367.128 103.414C366.642 102.82 366.399 102.046 366.399 101.092C366.399 100.336 366.624 99.6429 367.074 99.0129C367.524 98.3829 368.163 97.8879 368.991 97.5279C369.819 97.1499 370.764 96.9609 371.826 96.9609C373.464 96.9609 374.787 97.3749 375.795 98.2029C376.803 99.0309 377.343 100.165 377.415 101.605H374.958C374.904 100.831 374.589 100.21 374.013 99.7419C373.455 99.2739 372.699 99.0399 371.745 99.0399C370.863 99.0399 370.161 99.2289 369.639 99.6069C369.117 99.9849 368.856 100.48 368.856 101.092C368.856 101.578 369.009 101.983 369.315 102.307C369.639 102.613 370.035 102.865 370.503 103.063C370.989 103.243 371.655 103.45 372.501 103.684C373.563 103.972 374.427 104.26 375.093 104.548C375.759 104.818 376.326 105.232 376.794 105.79C377.28 106.348 377.532 107.077 377.55 107.977C377.55 108.787 377.325 109.516 376.875 110.164C376.425 110.812 375.786 111.325 374.958 111.703C374.148 112.063 373.212 112.243 372.15 112.243Z" fill="#662211"/>
<path d="M359.026 99.6071C359.458 98.7611 360.07 98.1041 360.862 97.6361C361.672 97.1681 362.653 96.9341 363.805 96.9341V99.4721H363.157C360.403 99.4721 359.026 100.966 359.026 103.954V112H356.569V97.2041H359.026V99.6071Z" fill="#662211"/>
<path d="M353.056 104.035C353.056 104.503 353.029 104.998 352.975 105.52H341.149C341.239 106.978 341.734 108.121 342.634 108.949C343.552 109.759 344.659 110.164 345.955 110.164C347.017 110.164 347.899 109.921 348.601 109.435C349.321 108.931 349.825 108.265 350.113 107.437H352.759C352.363 108.859 351.571 110.02 350.383 110.92C349.195 111.802 347.719 112.243 345.955 112.243C344.551 112.243 343.291 111.928 342.175 111.298C341.077 110.668 340.213 109.777 339.583 108.625C338.953 107.455 338.638 106.105 338.638 104.575C338.638 103.045 338.944 101.704 339.556 100.552C340.168 99.3999 341.023 98.5179 342.121 97.9059C343.237 97.2759 344.515 96.9609 345.955 96.9609C347.359 96.9609 348.601 97.2669 349.681 97.8789C350.761 98.4909 351.589 99.3369 352.165 100.417C352.759 101.479 353.056 102.685 353.056 104.035ZM350.518 103.522C350.518 102.586 350.311 101.785 349.897 101.119C349.483 100.435 348.916 99.9219 348.196 99.5799C347.494 99.2199 346.711 99.0399 345.847 99.0399C344.605 99.0399 343.543 99.4359 342.661 100.228C341.797 101.02 341.302 102.118 341.176 103.522H350.518Z" fill="#662211"/>
<path d="M332.448 99.229V107.95C332.448 108.67 332.601 109.183 332.907 109.489C333.213 109.777 333.744 109.921 334.5 109.921H336.309V112H334.095C332.727 112 331.701 111.685 331.017 111.055C330.333 110.425 329.991 109.39 329.991 107.95V99.229H328.074V97.204H329.991V93.478H332.448V97.204H336.309V99.229H332.448Z" fill="#662211"/>
<path d="M322.343 99.229V107.95C322.343 108.67 322.496 109.183 322.802 109.489C323.108 109.777 323.639 109.921 324.395 109.921H326.204V112H323.99C322.622 112 321.596 111.685 320.912 111.055C320.228 110.425 319.886 109.39 319.886 107.95V99.229H317.969V97.204H319.886V93.478H322.343V97.204H326.204V99.229H322.343Z" fill="#662211"/>
<path d="M315.833 104.035C315.833 104.503 315.806 104.998 315.752 105.52H303.926C304.016 106.978 304.511 108.121 305.411 108.949C306.329 109.759 307.436 110.164 308.732 110.164C309.794 110.164 310.676 109.921 311.378 109.435C312.098 108.931 312.602 108.265 312.89 107.437H315.536C315.14 108.859 314.348 110.02 313.16 110.92C311.972 111.802 310.496 112.243 308.732 112.243C307.328 112.243 306.068 111.928 304.952 111.298C303.854 110.668 302.99 109.777 302.36 108.625C301.73 107.455 301.415 106.105 301.415 104.575C301.415 103.045 301.721 101.704 302.333 100.552C302.945 99.3999 303.8 98.5179 304.898 97.9059C306.014 97.2759 307.292 96.9609 308.732 96.9609C310.136 96.9609 311.378 97.2669 312.458 97.8789C313.538 98.4909 314.366 99.3369 314.942 100.417C315.536 101.479 315.833 102.685 315.833 104.035ZM313.295 103.522C313.295 102.586 313.088 101.785 312.674 101.119C312.26 100.435 311.693 99.9219 310.973 99.5799C310.271 99.2199 309.488 99.0399 308.624 99.0399C307.382 99.0399 306.32 99.4359 305.438 100.228C304.574 101.02 304.079 102.118 303.953 103.522H313.295Z" fill="#662211"/>
<path d="M297.896 93.3159V112H295.439V98.0679L289.229 112H287.501L281.264 98.0409V112H278.807V93.3159H281.453L288.365 108.76L295.277 93.3159H297.896Z" fill="#662211"/>
<path d="M249.295 99.229V107.95C249.295 108.67 249.448 109.183 249.754 109.489C250.06 109.777 250.591 109.921 251.347 109.921H253.156V112H250.942C249.574 112 248.548 111.685 247.864 111.055C247.18 110.425 246.838 109.39 246.838 107.95V99.229H244.921V97.204H246.838V93.478H249.295V97.204H253.156V99.229H249.295Z" fill="#662211"/>
<path d="M237.159 112.243C236.025 112.243 235.008 112.054 234.108 111.676C233.208 111.28 232.497 110.74 231.975 110.056C231.453 109.354 231.165 108.553 231.111 107.653H233.649C233.721 108.391 234.063 108.994 234.675 109.462C235.305 109.93 236.124 110.164 237.132 110.164C238.068 110.164 238.806 109.957 239.346 109.543C239.886 109.129 240.156 108.607 240.156 107.977C240.156 107.329 239.868 106.852 239.292 106.546C238.716 106.222 237.825 105.907 236.619 105.601C235.521 105.313 234.621 105.025 233.919 104.737C233.235 104.431 232.641 103.99 232.137 103.414C231.651 102.82 231.408 102.046 231.408 101.092C231.408 100.336 231.633 99.6429 232.083 99.0129C232.533 98.3829 233.172 97.8879 234 97.5279C234.828 97.1499 235.773 96.9609 236.835 96.9609C238.473 96.9609 239.796 97.3749 240.804 98.2029C241.812 99.0309 242.352 100.165 242.424 101.605H239.967C239.913 100.831 239.598 100.21 239.022 99.7419C238.464 99.2739 237.708 99.0399 236.754 99.0399C235.872 99.0399 235.17 99.2289 234.648 99.6069C234.126 99.9849 233.865 100.48 233.865 101.092C233.865 101.578 234.018 101.983 234.324 102.307C234.648 102.613 235.044 102.865 235.512 103.063C235.998 103.243 236.664 103.45 237.51 103.684C238.572 103.972 239.436 104.26 240.102 104.548C240.768 104.818 241.335 105.232 241.803 105.79C242.289 106.348 242.541 107.077 242.559 107.977C242.559 108.787 242.334 109.516 241.884 110.164C241.434 110.812 240.795 111.325 239.967 111.703C239.157 112.063 238.221 112.243 237.159 112.243Z" fill="#662211"/>
<path d="M227.503 97.2041V112H225.046V109.813C224.578 110.569 223.921 111.163 223.075 111.595C222.247 112.009 221.329 112.216 220.321 112.216C219.169 112.216 218.134 111.982 217.216 111.514C216.298 111.028 215.569 110.308 215.029 109.354C214.507 108.4 214.246 107.239 214.246 105.871V97.2041H216.676V105.547C216.676 107.005 217.045 108.13 217.783 108.922C218.521 109.696 219.529 110.083 220.807 110.083C222.121 110.083 223.156 109.678 223.912 108.868C224.668 108.058 225.046 106.879 225.046 105.331V97.2041H227.503Z" fill="#662211"/>
<path d="M206.495 99.6071C206.927 98.7611 207.539 98.1041 208.331 97.6361C209.141 97.1681 210.122 96.9341 211.274 96.9341V99.4721H210.626C207.872 99.4721 206.495 100.966 206.495 103.954V112H204.038V97.2041H206.495V99.6071Z" fill="#662211"/>
<path d="M200.744 93.1812V95.1792H195.614V112H193.157V95.1792H188V93.1812H200.744Z" fill="#662211"/>
</svg>
