<svg width="600" height="120" viewBox="0 0 600 120" fill="none" xmlns="http://www.w3.org/2000/svg">
<path d="M146.614 105.947C143.227 105.947 140.606 108.699 140.606 111.966C140.606 115.233 143.213 117.949 146.578 117.949C149.944 117.949 152.604 115.197 152.604 111.931C152.604 108.664 149.979 105.947 146.614 105.947ZM146.578 116.481C144.006 116.481 142.059 114.453 142.059 111.962C142.059 109.472 144.028 107.408 146.614 107.408C149.199 107.408 151.168 109.436 151.168 111.927C151.168 114.418 149.164 116.481 146.578 116.481ZM149.132 110.904C149.132 109.652 148.282 108.946 146.776 108.946H144.331V114.541H145.767V112.989H146.829L147.661 114.541H149.309L148.12 112.707C148.776 112.389 149.129 111.754 149.129 110.907L149.132 110.904ZM146.776 111.856H145.767V110.075H146.776C147.397 110.075 147.749 110.375 147.749 110.957C147.749 111.539 147.397 111.856 146.776 111.856ZM79.9914 0C79.9914 0 -22.8928 44.9444 4.70148 51.8166C8.79017 52.822 13.2458 53.5981 17.9977 54.3636C16.7312 67.2049 15.2778 87.3734 17.6872 106.843C20.072 126.243 38.2295 121.995 38.9456 108.262C39.2138 102.642 39.2596 96.1577 39.2596 96.1577L43.6905 96.1647C43.5423 96.8915 43.5388 97.7311 43.5388 98.3132V115.719C43.5388 116.947 44.5301 117.998 45.7578 117.998C46.9855 117.998 47.9732 116.947 47.9732 115.719V109.264H52.6052L56.3411 116.711C56.7292 117.49 57.4383 117.953 58.3096 117.998C58.7259 118.02 59.2057 117.903 59.5232 117.73C60.6697 117.099 60.9484 115.832 60.391 114.725L58.9905 111.938L57.2372 108.445C59.2445 107.302 60.5992 105.154 60.5992 102.677C60.5992 100.363 59.0293 97.7593 56.9373 96.1647L71.7399 96.1824C66.4341 96.9479 62.3313 101.527 62.3313 107.041C62.3313 113.074 67.2667 118.002 73.3062 118.002C79.3458 118.002 84.2706 113.074 84.2706 107.041C84.2706 101.527 80.1713 96.9585 74.8831 96.1824L86.419 96.1965C86.3273 97.0502 86.3484 97.9745 86.3484 98.5354V115.786C86.3484 117.007 87.3433 117.998 88.5886 117.998C89.8339 117.998 90.8534 117.007 90.8534 115.786V109.5H96.6848C100.283 109.5 103.239 106.41 103.239 102.801C103.239 100.638 101.821 97.9745 99.9445 96.2071H105.106C105.017 97.0537 105.035 97.978 105.035 98.539V115.79C105.035 117.011 106.062 118.002 107.289 118.002C108.517 118.002 109.533 117.011 109.533 115.79V109.503H115.364C118.97 109.503 121.912 106.413 121.912 102.804C121.912 100.642 120.519 97.9921 118.635 96.2106H123.683V100.585C123.683 104.67 126.301 108.089 130.181 109.087V115.794C130.181 117.021 131.169 118.005 132.411 118.005C133.652 118.005 134.605 117.021 134.605 115.794V109.087C138.489 108.085 141.138 104.667 141.138 100.585V96.2282C141.138 96.2282 144.423 70.9655 141.399 54.3707C146.014 53.6052 151.32 52.7338 155.302 51.7531C182.883 44.8738 80.0125 0.00705563 79.9914 0ZM53.9634 104.787H47.9556V100.582H53.9634C55.1311 100.582 56.0695 101.509 56.0695 102.681C56.0695 103.852 55.1311 104.787 53.9634 104.787ZM79.7656 107.041C79.7656 110.608 76.8905 113.504 73.3098 113.504C69.7291 113.504 66.8433 110.611 66.8433 107.041C66.8433 103.471 69.7396 100.578 73.3098 100.578C76.8799 100.578 79.7656 103.46 79.7656 107.041ZM96.7131 104.995V105.027H90.8887V100.546H96.7131C97.8525 100.546 98.7909 101.633 98.7909 102.776C98.7909 103.919 97.8525 104.998 96.7131 104.998V104.995ZM115.393 104.995V105.027H109.554V100.546H115.393C116.543 100.546 117.467 101.633 117.467 102.776C117.467 103.919 116.543 104.998 115.393 104.998V104.995ZM80.002 84.0008C54.5949 84.0008 33.9997 74.5957 33.9997 63.0068C33.9997 51.4179 54.5949 41.9986 80.002 41.9986C105.409 41.9986 125.997 51.4109 125.997 63.0068C125.997 74.6027 105.43 84.0008 80.002 84.0008ZM136.499 100.578C136.499 102.949 134.757 104.903 132.414 104.903C130.072 104.903 128.308 102.949 128.308 100.578V96.2212H136.499V100.578ZM70.6639 107.055C70.6639 108.498 71.8351 109.662 73.2568 109.662C74.6785 109.662 75.8815 108.498 75.8815 107.055C75.8815 105.612 74.6926 104.445 73.2568 104.445C71.821 104.445 70.6639 105.616 70.6639 107.055ZM80.002 48.3099C62.2184 48.3099 47.8039 54.8822 47.8039 63.0068C47.8039 71.1314 62.2184 77.6966 80.002 77.6966C97.7855 77.6966 112.211 71.1243 112.211 63.0068C112.211 54.8893 97.7961 48.3099 80.002 48.3099Z" fill="#C60000"/>
<path d="M599.998 65.8705C599.998 72.5002 594.835 77.7 588.187 77.7C581.538 77.7 576.45 72.5002 576.45 65.9262C576.45 59.3521 581.557 54.1523 588.261 54.1523C594.965 54.1523 599.998 59.2221 599.998 65.8519V65.8705ZM598.066 65.8705C598.066 60.2621 593.925 56.0094 588.261 56.0094C582.597 56.0094 578.363 60.3735 578.363 65.9447C578.363 71.5159 582.56 75.8801 588.205 75.8801C593.851 75.8801 598.066 71.4788 598.066 65.8705ZM591.659 68.0061L594.594 72.5002H591.734L589.134 68.5075H586.162V72.5002H583.303V59.3707H588.762C592.235 59.3707 594.296 61.1721 594.296 63.9391C594.296 65.9076 593.368 67.3004 591.659 68.0061ZM588.595 66.279C590.471 66.279 591.529 65.4062 591.529 63.9391C591.529 62.472 590.471 61.6363 588.595 61.6363H586.125V66.279H588.595Z" fill="#C60000"/>
<path d="M553.749 99.0959C550.733 99.0959 548.094 98.4307 545.833 97.1003C543.571 95.77 541.797 93.7522 540.511 91.0471C539.27 88.2977 538.649 84.8387 538.649 80.6701C538.649 76.4573 539.247 72.9983 540.445 70.2932C541.642 67.5881 543.372 65.5703 545.633 64.24C547.895 62.9096 550.6 62.2444 553.749 62.2444C557.119 62.2444 560.134 63.0204 562.795 64.5725C565.5 66.0803 567.629 68.2089 569.181 70.9584C570.777 73.7078 571.576 76.9451 571.576 80.6701C571.576 84.4396 570.777 87.699 569.181 90.4484C567.629 93.1979 565.5 95.3265 562.795 96.8343C560.134 98.342 557.119 99.0959 553.749 99.0959ZM532.595 111.468V62.7765H542.507V70.0936L542.307 80.7367L542.972 91.3132V111.468H532.595ZM551.953 90.5815C553.682 90.5815 555.212 90.1824 556.542 89.3841C557.917 88.5859 559.003 87.4551 559.802 85.9917C560.644 84.4839 561.066 82.7101 561.066 80.6701C561.066 78.5859 560.644 76.812 559.802 75.3486C559.003 73.8852 557.917 72.7544 556.542 71.9562C555.212 71.1579 553.682 70.7588 551.953 70.7588C550.223 70.7588 548.671 71.1579 547.296 71.9562C545.921 72.7544 544.835 73.8852 544.037 75.3486C543.238 76.812 542.839 78.5859 542.839 80.6701C542.839 82.7101 543.238 84.4839 544.037 85.9917C544.835 87.4551 545.921 88.5859 547.296 89.3841C548.671 90.1824 550.223 90.5815 551.953 90.5815Z" fill="#C60000"/>
<path d="M507.822 99.0959C504.806 99.0959 502.167 98.4307 499.906 97.1003C497.644 95.77 495.87 93.7522 494.584 91.0471C493.343 88.2977 492.722 84.8387 492.722 80.6701C492.722 76.4573 493.32 72.9983 494.518 70.2932C495.715 67.5881 497.445 65.5703 499.706 64.24C501.968 62.9096 504.673 62.2444 507.822 62.2444C511.192 62.2444 514.207 63.0204 516.868 64.5725C519.573 66.0803 521.702 68.2089 523.254 70.9584C524.85 73.7078 525.649 76.9451 525.649 80.6701C525.649 84.4396 524.85 87.699 523.254 90.4484C521.702 93.1979 519.573 95.3265 516.868 96.8343C514.207 98.342 511.192 99.0959 507.822 99.0959ZM486.669 111.468V62.7765H496.58V70.0936L496.38 80.7367L497.045 91.3132V111.468H486.669ZM506.026 90.5815C507.755 90.5815 509.285 90.1824 510.615 89.3841C511.99 88.5859 513.077 87.4551 513.875 85.9917C514.717 84.4839 515.139 82.7101 515.139 80.6701C515.139 78.5859 514.717 76.812 513.875 75.3486C513.077 73.8852 511.99 72.7544 510.615 71.9562C509.285 71.1579 507.755 70.7588 506.026 70.7588C504.296 70.7588 502.744 71.1579 501.369 71.9562C499.994 72.7544 498.908 73.8852 498.11 75.3486C497.312 76.812 496.912 78.5859 496.912 80.6701C496.912 82.7101 497.312 84.4839 498.11 85.9917C498.908 87.4551 499.994 88.5859 501.369 89.3841C502.744 90.1824 504.296 90.5815 506.026 90.5815Z" fill="#C60000"/>
<path d="M430.352 98.5635L451.106 52.0002H461.749L482.569 98.5635H471.261L454.232 57.4548H458.49L441.394 98.5635H430.352ZM440.729 88.5857L443.589 80.4039H467.536L470.463 88.5857H440.729Z" fill="#C60000"/>
<path d="M402.392 112C400.529 112 398.689 111.712 396.871 111.135C395.053 110.559 393.567 109.761 392.414 108.741L396.206 101.357C397.004 102.067 397.913 102.621 398.933 103.02C399.997 103.419 401.039 103.619 402.059 103.619C403.523 103.619 404.676 103.264 405.518 102.554C406.405 101.889 407.203 100.758 407.913 99.162L409.776 94.7718L410.574 93.6409L423.412 62.7761H433.39L417.226 100.758C416.073 103.641 414.742 105.903 413.235 107.543C411.771 109.184 410.13 110.337 408.312 111.002C406.538 111.668 404.565 112 402.392 112ZM408.512 99.9602L392.547 62.7761H403.257L415.629 92.7097L408.512 99.9602Z" fill="#C60000"/>
<path d="M374.069 99.0959C371.054 99.0959 368.415 98.4307 366.153 97.1003C363.892 95.77 362.118 93.7522 360.832 91.0471C359.59 88.2977 358.969 84.8387 358.969 80.6701C358.969 76.4573 359.568 72.9983 360.765 70.2932C361.963 67.5881 363.692 65.5703 365.954 64.24C368.216 62.9096 370.921 62.2444 374.069 62.2444C377.439 62.2444 380.455 63.0204 383.116 64.5725C385.821 66.0803 387.949 68.2089 389.502 70.9584C391.098 73.7078 391.896 76.9451 391.896 80.6701C391.896 84.4396 391.098 87.699 389.502 90.4484C387.949 93.1979 385.821 95.3265 383.116 96.8343C380.455 98.342 377.439 99.0959 374.069 99.0959ZM352.916 111.468V62.7765H362.827V70.0936L362.628 80.7367L363.293 91.3132V111.468H352.916ZM372.273 90.5815C374.003 90.5815 375.533 90.1824 376.863 89.3841C378.238 88.5859 379.324 87.4551 380.122 85.9917C380.965 84.4839 381.386 82.7101 381.386 80.6701C381.386 78.5859 380.965 76.812 380.122 75.3486C379.324 73.8852 378.238 72.7544 376.863 71.9562C375.533 71.1579 374.003 70.7588 372.273 70.7588C370.544 70.7588 368.992 71.1579 367.617 71.9562C366.242 72.7544 365.156 73.8852 364.357 75.3486C363.559 76.812 363.16 78.5859 363.16 80.6701C363.16 82.7101 363.559 84.4839 364.357 85.9917C365.156 87.4551 366.242 88.5859 367.617 89.3841C368.992 90.1824 370.544 90.5815 372.273 90.5815Z" fill="#C60000"/>
<path d="M328.142 99.0959C325.127 99.0959 322.488 98.4307 320.227 97.1003C317.965 95.77 316.191 93.7522 314.905 91.0471C313.663 88.2977 313.043 84.8387 313.043 80.6701C313.043 76.4573 313.641 72.9983 314.839 70.2932C316.036 67.5881 317.765 65.5703 320.027 64.24C322.289 62.9096 324.994 62.2444 328.142 62.2444C331.513 62.2444 334.528 63.0204 337.189 64.5725C339.894 66.0803 342.023 68.2089 343.575 70.9584C345.171 73.7078 345.969 76.9451 345.969 80.6701C345.969 84.4396 345.171 87.699 343.575 90.4484C342.023 93.1979 339.894 95.3265 337.189 96.8343C334.528 98.342 331.513 99.0959 328.142 99.0959ZM306.989 111.468V62.7765H316.901V70.0936L316.701 80.7367L317.366 91.3132V111.468H306.989ZM326.346 90.5815C328.076 90.5815 329.606 90.1824 330.936 89.3841C332.311 88.5859 333.397 87.4551 334.196 85.9917C335.038 84.4839 335.459 82.7101 335.459 80.6701C335.459 78.5859 335.038 76.812 334.196 75.3486C333.397 73.8852 332.311 72.7544 330.936 71.9562C329.606 71.1579 328.076 70.7588 326.346 70.7588C324.617 70.7588 323.065 71.1579 321.69 71.9562C320.315 72.7544 319.229 73.8852 318.431 75.3486C317.632 76.812 317.233 78.5859 317.233 80.6701C317.233 82.7101 317.632 84.4839 318.431 85.9917C319.229 87.4551 320.315 88.5859 321.69 89.3841C323.065 90.1824 324.617 90.5815 326.346 90.5815Z" fill="#C60000"/>
<path d="M280.43 99.0959C276.616 99.0959 273.224 98.2977 270.253 96.7012C267.326 95.1048 264.998 92.9318 263.268 90.1824C261.583 87.3886 260.741 84.2178 260.741 80.6701C260.741 77.0781 261.583 73.9074 263.268 71.1579C264.998 68.3641 267.326 66.1912 270.253 64.6391C273.224 63.0426 276.616 62.2444 280.43 62.2444C284.2 62.2444 287.57 63.0426 290.541 64.6391C293.512 66.1912 295.84 68.342 297.526 71.0914C299.211 73.8409 300.053 77.0338 300.053 80.6701C300.053 84.2178 299.211 87.3886 297.526 90.1824C295.84 92.9318 293.512 95.1048 290.541 96.7012C287.57 98.2977 284.2 99.0959 280.43 99.0959ZM280.43 90.5815C282.16 90.5815 283.712 90.1824 285.087 89.3841C286.461 88.5859 287.548 87.4551 288.346 85.9917C289.144 84.4839 289.543 82.7101 289.543 80.6701C289.543 78.5859 289.144 76.812 288.346 75.3486C287.548 73.8852 286.461 72.7544 285.087 71.9562C283.712 71.1579 282.16 70.7588 280.43 70.7588C278.701 70.7588 277.149 71.1579 275.774 71.9562C274.399 72.7544 273.29 73.8852 272.448 75.3486C271.65 76.812 271.251 78.5859 271.251 80.6701C271.251 82.7101 271.65 84.4839 272.448 85.9917C273.29 87.4551 274.399 88.5859 275.774 89.3841C277.149 90.1824 278.701 90.5815 280.43 90.5815Z" fill="#C60000"/>
<path d="M235.339 98.5638V62.7765H245.25V72.8874L243.853 69.9606C244.917 67.4329 246.625 65.526 248.975 64.24C251.325 62.9096 254.186 62.2444 257.556 62.2444V71.8231C257.113 71.7788 256.713 71.7566 256.359 71.7566C256.004 71.7123 255.627 71.6901 255.228 71.6901C252.39 71.6901 250.084 72.5105 248.31 74.1513C246.58 75.7477 245.716 78.2533 245.716 81.6679V98.5638H235.339Z" fill="#C60000"/>
<path d="M188 98.5635V52.0002H208.155C212.324 52.0002 215.916 52.6876 218.931 54.0623C221.947 55.3927 224.275 57.3218 225.916 59.8495C227.557 62.3772 228.377 65.3927 228.377 68.8961C228.377 72.3551 227.557 75.3484 225.916 77.8761C224.275 80.4039 221.947 82.3551 218.931 83.7298C215.916 85.0602 212.324 85.7254 208.155 85.7254H193.987L198.776 80.8695V98.5635H188ZM198.776 82.0668L193.987 76.9449H207.557C210.883 76.9449 213.366 76.2353 215.007 74.8163C216.648 73.3972 217.468 71.4238 217.468 68.8961C217.468 66.324 216.648 64.3284 215.007 62.9094C213.366 61.4903 210.883 60.7808 207.557 60.7808H193.987L198.776 55.6588V82.0668Z" fill="#C60000"/>
</svg>
