<svg width="400" height="200" viewBox="0 0 400 200" fill="none" xmlns="http://www.w3.org/2000/svg">
<path d="M258.853 102.887C255.565 102.887 253.02 105.559 253.02 108.732C253.02 111.904 255.551 114.542 258.819 114.542C262.086 114.542 264.669 111.87 264.669 108.697C264.669 105.525 262.121 102.887 258.853 102.887ZM258.819 113.117C256.322 113.117 254.431 111.147 254.431 108.728C254.431 106.309 256.343 104.305 258.853 104.305C261.364 104.305 263.275 106.275 263.275 108.694C263.275 111.113 261.329 113.117 258.819 113.117ZM261.299 107.7C261.299 106.484 260.473 105.799 259.011 105.799H256.637V111.232H258.031V109.725H259.062L259.87 111.232H261.47L260.316 109.451C260.953 109.143 261.295 108.526 261.295 107.704L261.299 107.7ZM259.011 108.625H258.031V106.895H259.011C259.614 106.895 259.956 107.186 259.956 107.752C259.956 108.317 259.614 108.625 259.011 108.625ZM194.17 0C194.17 0 94.2806 43.6461 121.072 50.3198C125.041 51.2962 129.367 52.0499 133.981 52.7933C132.751 65.2636 131.34 84.8495 133.679 103.757C135.995 122.596 153.624 118.471 154.319 105.134C154.579 99.6769 154.624 93.38 154.624 93.38L158.926 93.3869C158.782 94.0926 158.779 94.908 158.779 95.4733V112.377C158.779 113.569 159.741 114.59 160.933 114.59C162.125 114.59 163.084 113.569 163.084 112.377V106.107H167.581L171.208 113.339C171.585 114.097 172.274 114.545 173.12 114.59C173.524 114.61 173.989 114.497 174.298 114.329C175.411 113.716 175.681 112.486 175.14 111.411L173.781 108.704L172.078 105.312C174.027 104.202 175.342 102.116 175.342 99.7111C175.342 97.4637 173.818 94.9354 171.787 93.3869L186.159 93.404C181.008 94.1475 177.024 98.5943 177.024 103.949C177.024 109.807 181.816 114.593 187.68 114.593C193.543 114.593 198.325 109.807 198.325 103.949C198.325 98.5943 194.345 94.1577 189.211 93.404L200.411 93.4177C200.322 94.2468 200.342 95.1444 200.342 95.6891V112.442C200.342 113.627 201.308 114.59 202.517 114.59C203.726 114.59 204.716 113.627 204.716 112.442V106.337H210.378C213.871 106.337 216.742 103.336 216.742 99.831C216.742 97.7309 215.365 95.1444 213.543 93.428H218.553C218.468 94.2502 218.485 95.1478 218.485 95.6925V112.445C218.485 113.631 219.482 114.593 220.674 114.593C221.866 114.593 222.852 113.631 222.852 112.445V106.34H228.514C232.014 106.34 234.871 103.339 234.871 99.8345C234.871 97.7344 233.518 95.1615 231.689 93.4314H236.59V97.6796C236.59 101.647 239.131 104.966 242.899 105.936V112.449C242.899 113.641 243.858 114.597 245.064 114.597C246.269 114.597 247.194 113.641 247.194 112.449V105.936C250.965 104.963 253.537 101.643 253.537 97.6796V93.4486C253.537 93.4486 256.726 68.9156 253.791 52.8001C258.271 52.0567 263.422 51.2105 267.289 50.2581C294.067 43.5776 194.191 0.00685182 194.17 0ZM168.9 101.76H163.067V97.6761H168.9C170.033 97.6761 170.945 98.5771 170.945 99.7145C170.945 100.852 170.033 101.76 168.9 101.76ZM193.951 103.949C193.951 107.413 191.16 110.225 187.683 110.225C184.207 110.225 181.405 107.416 181.405 103.949C181.405 100.482 184.217 97.6727 187.683 97.6727C191.149 97.6727 193.951 100.472 193.951 103.949ZM210.405 101.962V101.993H204.75V97.6419H210.405C211.511 97.6419 212.423 98.6971 212.423 99.807C212.423 100.917 211.511 101.965 210.405 101.965V101.962ZM228.541 101.962V101.993H222.872V97.6419H228.541C229.658 97.6419 230.555 98.6971 230.555 99.807C230.555 100.917 229.658 101.965 228.541 101.965V101.962ZM194.18 81.5744C169.513 81.5744 149.517 72.4409 149.517 61.1868C149.517 49.9326 169.513 40.7855 194.18 40.7855C218.848 40.7855 238.837 49.9258 238.837 61.1868C238.837 72.4477 218.869 81.5744 194.18 81.5744ZM249.033 97.6727C249.033 99.9749 247.341 101.873 245.067 101.873C242.793 101.873 241.08 99.9749 241.08 97.6727V93.4417H249.033V97.6727ZM185.114 103.963C185.114 105.364 186.251 106.494 187.632 106.494C189.012 106.494 190.18 105.364 190.18 103.963C190.18 102.561 189.026 101.428 187.632 101.428C186.238 101.428 185.114 102.565 185.114 103.963ZM194.18 46.9144C176.915 46.9144 162.92 53.2969 162.92 61.1868C162.92 69.0766 176.915 75.4523 194.18 75.4523C211.446 75.4523 225.452 69.0698 225.452 61.1868C225.452 53.3037 211.457 46.9144 194.18 46.9144Z" fill="#C60000"/>
<path d="M400.003 155.204C400.003 161.642 394.991 166.692 388.536 166.692C382.081 166.692 377.141 161.642 377.141 155.258C377.141 148.874 382.099 143.824 388.608 143.824C395.117 143.824 400.003 148.748 400.003 155.186V155.204ZM398.128 155.204C398.128 149.757 394.107 145.628 388.608 145.628C383.109 145.628 378.998 149.866 378.998 155.276C378.998 160.686 383.073 164.924 388.554 164.924C394.035 164.924 398.128 160.65 398.128 155.204ZM391.908 157.278L394.757 161.642H391.98L389.456 157.765H386.571V161.642H383.794V148.892H389.095C392.467 148.892 394.468 150.641 394.468 153.328C394.468 155.24 393.567 156.592 391.908 157.278ZM388.933 155.601C390.754 155.601 391.782 154.753 391.782 153.328C391.782 151.904 390.754 151.092 388.933 151.092H386.535V155.601H388.933Z" fill="#C60000"/>
<path d="M355.101 187.471C352.173 187.471 349.611 186.825 347.415 185.533C345.219 184.241 343.497 182.282 342.249 179.655C341.043 176.985 340.44 173.626 340.44 169.578C340.44 165.486 341.021 162.127 342.184 159.5C343.346 156.873 345.026 154.914 347.221 153.622C349.417 152.33 352.044 151.684 355.101 151.684C358.373 151.684 361.301 152.438 363.884 153.945C366.51 155.409 368.577 157.476 370.084 160.146C371.634 162.816 372.409 165.96 372.409 169.578C372.409 173.238 371.634 176.403 370.084 179.073C368.577 181.743 366.51 183.811 363.884 185.275C361.301 186.739 358.373 187.471 355.101 187.471ZM334.563 199.486V152.201H344.186V159.307L343.992 169.642L344.638 179.913V199.486H334.563ZM353.357 179.203C355.036 179.203 356.521 178.815 357.813 178.04C359.148 177.265 360.203 176.167 360.978 174.745C361.796 173.281 362.205 171.559 362.205 169.578C362.205 167.554 361.796 165.831 360.978 164.41C360.203 162.989 359.148 161.89 357.813 161.115C356.521 160.34 355.036 159.953 353.357 159.953C351.678 159.953 350.171 160.34 348.836 161.115C347.501 161.89 346.446 162.989 345.671 164.41C344.896 165.831 344.509 167.554 344.509 169.578C344.509 171.559 344.896 173.281 345.671 174.745C346.446 176.167 347.501 177.265 348.836 178.04C350.171 178.815 351.678 179.203 353.357 179.203Z" fill="#C60000"/>
<path d="M310.511 187.471C307.583 187.471 305.021 186.825 302.826 185.533C300.63 184.241 298.908 182.282 297.659 179.655C296.453 176.985 295.851 173.626 295.851 169.578C295.851 165.486 296.432 162.127 297.594 159.5C298.757 156.873 300.436 154.914 302.632 153.622C304.828 152.33 307.454 151.684 310.511 151.684C313.783 151.684 316.711 152.438 319.294 153.945C321.921 155.409 323.987 157.476 325.494 160.146C327.044 162.816 327.819 165.96 327.819 169.578C327.819 173.238 327.044 176.403 325.494 179.073C323.987 181.743 321.921 183.811 319.294 185.275C316.711 186.739 313.783 187.471 310.511 187.471ZM289.974 199.486V152.201H299.596V159.307L299.403 169.642L300.049 179.913V199.486H289.974ZM308.767 179.203C310.446 179.203 311.932 178.815 313.223 178.04C314.558 177.265 315.613 176.167 316.388 174.745C317.206 173.281 317.615 171.559 317.615 169.578C317.615 167.554 317.206 165.831 316.388 164.41C315.613 162.989 314.558 161.89 313.223 161.115C311.932 160.34 310.446 159.953 308.767 159.953C307.088 159.953 305.581 160.34 304.246 161.115C302.912 161.89 301.857 162.989 301.082 164.41C300.307 165.831 299.919 167.554 299.919 169.578C299.919 171.559 300.307 173.281 301.082 174.745C301.857 176.167 302.912 177.265 304.246 178.04C305.581 178.815 307.088 179.203 308.767 179.203Z" fill="#C60000"/>
<path d="M235.296 186.953L255.446 141.735H265.779L285.994 186.953H275.015L258.482 147.032H262.615L246.017 186.953H235.296ZM245.371 177.263L248.148 169.318H271.398L274.24 177.263H245.371Z" fill="#C60000"/>
<path d="M208.151 200.001C206.342 200.001 204.556 199.721 202.79 199.161C201.025 198.601 199.583 197.826 198.463 196.836L202.145 189.665C202.92 190.354 203.802 190.893 204.792 191.28C205.826 191.668 206.838 191.862 207.828 191.862C209.249 191.862 210.368 191.517 211.186 190.828C212.047 190.182 212.822 189.084 213.511 187.534L215.32 183.27L216.095 182.172L228.559 152.199H238.246L222.553 189.084C221.433 191.883 220.142 194.079 218.678 195.673C217.257 197.266 215.664 198.386 213.899 199.032C212.176 199.678 210.261 200.001 208.151 200.001ZM214.092 188.309L198.593 152.199H208.99L221.003 181.268L214.092 188.309Z" fill="#C60000"/>
<path d="M180.652 187.471C177.725 187.471 175.163 186.825 172.967 185.533C170.771 184.241 169.049 182.282 167.8 179.655C166.595 176.985 165.992 173.626 165.992 169.578C165.992 165.486 166.573 162.127 167.736 159.5C168.898 156.873 170.577 154.914 172.773 153.622C174.969 152.33 177.595 151.684 180.652 151.684C183.925 151.684 186.852 152.438 189.436 153.945C192.062 155.409 194.129 157.476 195.636 160.146C197.186 162.816 197.961 165.96 197.961 169.578C197.961 173.238 197.186 176.403 195.636 179.073C194.129 181.743 192.062 183.811 189.436 185.275C186.852 186.739 183.925 187.471 180.652 187.471ZM160.115 199.486V152.201H169.738V159.307L169.544 169.642L170.19 179.913V199.486H160.115ZM178.909 179.203C180.588 179.203 182.073 178.815 183.365 178.04C184.7 177.265 185.754 176.167 186.529 174.745C187.347 173.281 187.756 171.559 187.756 169.578C187.756 167.554 187.347 165.831 186.529 164.41C185.754 162.989 184.7 161.89 183.365 161.115C182.073 160.34 180.588 159.953 178.909 159.953C177.229 159.953 175.723 160.34 174.388 161.115C173.053 161.89 171.998 162.989 171.223 164.41C170.448 165.831 170.061 167.554 170.061 169.578C170.061 171.559 170.448 173.281 171.223 174.745C171.998 176.167 173.053 177.265 174.388 178.04C175.723 178.815 177.229 179.203 178.909 179.203Z" fill="#C60000"/>
<path d="M136.063 187.471C133.135 187.471 130.573 186.825 128.378 185.533C126.182 184.241 124.46 182.282 123.211 179.655C122.005 176.985 121.403 173.626 121.403 169.578C121.403 165.486 121.984 162.127 123.146 159.5C124.309 156.873 125.988 154.914 128.184 153.622C130.38 152.33 133.006 151.684 136.063 151.684C139.335 151.684 142.263 152.438 144.846 153.945C147.473 155.409 149.539 157.476 151.046 160.146C152.596 162.816 153.371 165.96 153.371 169.578C153.371 173.238 152.596 176.403 151.046 179.073C149.539 181.743 147.473 183.811 144.846 185.275C142.263 186.739 139.335 187.471 136.063 187.471ZM115.526 199.486V152.201H125.148V159.307L124.955 169.642L125.601 179.913V199.486H115.526ZM134.319 179.203C135.998 179.203 137.484 178.815 138.775 178.04C140.11 177.265 141.165 176.167 141.94 174.745C142.758 173.281 143.167 171.559 143.167 169.578C143.167 167.554 142.758 165.831 141.94 164.41C141.165 162.989 140.11 161.89 138.775 161.115C137.484 160.34 135.998 159.953 134.319 159.953C132.64 159.953 131.133 160.34 129.798 161.115C128.464 161.89 127.409 162.989 126.634 164.41C125.859 165.831 125.471 167.554 125.471 169.578C125.471 171.559 125.859 173.281 126.634 174.745C127.409 176.167 128.464 177.265 129.798 178.04C131.133 178.815 132.64 179.203 134.319 179.203Z" fill="#C60000"/>
<path d="M89.7393 187.471C86.0366 187.471 82.7428 186.696 79.8581 185.146C77.0165 183.595 74.7561 181.485 73.077 178.815C71.4409 176.102 70.6228 173.023 70.6228 169.578C70.6228 166.089 71.4409 163.01 73.077 160.34C74.7561 157.627 77.0165 155.517 79.8581 154.01C82.7428 152.459 86.0366 151.684 89.7393 151.684C93.399 151.684 96.6712 152.459 99.5559 154.01C102.441 155.517 104.701 157.606 106.337 160.276C107.973 162.946 108.791 166.046 108.791 169.578C108.791 173.023 107.973 176.102 106.337 178.815C104.701 181.485 102.441 183.595 99.5559 185.146C96.6712 186.696 93.399 187.471 89.7393 187.471ZM89.7393 179.203C91.4185 179.203 92.9254 178.815 94.2601 178.04C95.5949 177.265 96.6497 176.167 97.4247 174.745C98.1997 173.281 98.5872 171.559 98.5872 169.578C98.5872 167.554 98.1997 165.831 97.4247 164.41C96.6497 162.989 95.5949 161.89 94.2601 161.115C92.9254 160.34 91.4185 159.953 89.7393 159.953C88.0602 159.953 86.5532 160.34 85.2185 161.115C83.8838 161.89 82.8074 162.989 81.9894 164.41C81.2144 165.831 80.8269 167.554 80.8269 169.578C80.8269 171.559 81.2144 173.281 81.9894 174.745C82.8074 176.167 83.8838 177.265 85.2185 178.04C86.5532 178.815 88.0602 179.203 89.7393 179.203Z" fill="#C60000"/>
<path d="M45.9607 186.954V152.201H55.5835V162.02L54.2273 159.177C55.2606 156.723 56.9183 154.871 59.2002 153.622C61.4821 152.33 64.2592 151.684 67.5314 151.684V160.986C67.1008 160.943 66.7133 160.922 66.3689 160.922C66.0244 160.878 65.6585 160.857 65.271 160.857C62.5154 160.857 60.2766 161.654 58.5543 163.247C56.8752 164.797 56.0356 167.231 56.0356 170.547V186.954H45.9607Z" fill="#C60000"/>
<path d="M0 186.953V141.735H19.5686C23.6158 141.735 27.1033 142.402 30.031 143.737C32.9588 145.029 35.2192 146.903 36.8122 149.357C38.4053 151.812 39.2018 154.74 39.2018 158.143C39.2018 161.502 38.4053 164.409 36.8122 166.863C35.2192 169.318 32.9588 171.213 30.031 172.548C27.1033 173.84 23.6158 174.486 19.5686 174.486H5.81245L10.4624 169.77V186.953H0ZM10.4624 170.933L5.81245 165.959H18.9873C22.2165 165.959 24.6276 165.27 26.2206 163.892C27.8137 162.514 28.6102 160.597 28.6102 158.143C28.6102 155.645 27.8137 153.707 26.2206 152.329C24.6276 150.951 22.2165 150.262 18.9873 150.262H5.81245L10.4624 145.288V170.933Z" fill="#C60000"/>
</svg>
